<svg
  xmlns="http://www.w3.org/2000/svg"
  width="1200"
  height="630"
  viewBox="0 0 1200 630"
  role="img"
  aria-label="Chatrix unified streaming desk"
>
  <defs>
    <linearGradient id="bg" x1="0" x2="1" y1="0" y2="1">
      <stop offset="0" stop-color="#0c1110" />
      <stop offset="0.58" stop-color="#121918" />
      <stop offset="1" stop-color="#0c1110" />
    </linearGradient>
    <linearGradient id="accent" x1="0" x2="1" y1="0" y2="1">
      <stop offset="0" stop-color="#24d0a2" />
      <stop offset="1" stop-color="#f0b35d" />
    </linearGradient>
    <filter id="shadow" x="-20%" y="-20%" width="140%" height="140%">
      <feDropShadow
        dx="0"
        dy="24"
        stdDeviation="30"
        flood-color="#000"
        flood-opacity="0.38"
      />
    </filter>
  </defs>
  <rect width="1200" height="630" fill="url(#bg)" />
  <circle cx="132" cy="92" r="180" fill="#24d0a2" opacity="0.12" />
  <circle cx="1050" cy="110" r="210" fill="#f0b35d" opacity="0.12" />
  <g opacity="0.11">
    <path
      d="M0 80h1200M0 160h1200M0 240h1200M0 320h1200M0 400h1200M0 480h1200M0 560h1200"
      stroke="#fff"
    />
    <path
      d="M80 0v630M160 0v630M240 0v630M320 0v630M400 0v630M480 0v630M560 0v630M640 0v630M720 0v630M800 0v630M880 0v630M960 0v630M1040 0v630M1120 0v630"
      stroke="#fff"
    />
  </g>
  <g transform="translate(80 82)">
    <rect width="52" height="52" rx="13" fill="#24d0a2" />
    <path
      d="M17 17h18a5 5 0 0 1 5 5v9a5 5 0 0 1-5 5h-8l-8 7v-7h-2a5 5 0 0 1-5-5v-9a5 5 0 0 1 5-5Z"
      fill="#08100e"
      opacity="0.82"
    />
    <text
      x="72"
      y="35"
      fill="#f3f1ea"
      font-family="Inter, Arial, sans-serif"
      font-size="32"
      font-weight="700"
    >
      Chatrix
    </text>
  </g>
  <text
    x="80"
    y="235"
    fill="#f3f1ea"
    font-family="Georgia, serif"
    font-size="82"
    font-weight="700"
  >
    Unified streaming desk
  </text>
  <text
    x="84"
    y="302"
    fill="#c9d9d2"
    font-family="Inter, Arial, sans-serif"
    font-size="30"
  >
    Twitch, Kick, YouTube, and TikTok chat in one readable desktop app.
  </text>
  <g
    transform="translate(80 356)"
    fill="none"
    font-family="Inter, Arial, sans-serif"
    font-size="22"
    font-weight="700"
  >
    <rect width="142" height="50" rx="25" fill="#24d0a2" />
    <text x="25" y="32" fill="#08100e">Windows</text>
    <rect
      x="158"
      width="126"
      height="50"
      rx="25"
      stroke="#8aa89d"
      opacity="0.8"
    />
    <text x="188" y="32" fill="#f3f1ea">macOS</text>
    <rect
      x="300"
      width="116"
      height="50"
      rx="25"
      stroke="#8aa89d"
      opacity="0.8"
    />
    <text x="331" y="32" fill="#f3f1ea">Linux</text>
  </g>
  <g transform="translate(680 170)" filter="url(#shadow)">
    <rect
      width="420"
      height="300"
      rx="26"
      fill="#151f1d"
      stroke="#6d887d"
      opacity="0.98"
    />
    <rect
      x="24"
      y="24"
      width="372"
      height="52"
      rx="16"
      fill="#1d2926"
      stroke="#40534c"
    />
    <circle cx="54" cy="50" r="8" fill="#24d0a2" />
    <rect
      x="78"
      y="42"
      width="126"
      height="16"
      rx="8"
      fill="#f3f1ea"
      opacity="0.86"
    />
    <rect
      x="260"
      y="38"
      width="92"
      height="24"
      rx="12"
      fill="#24d0a2"
      opacity="0.18"
    />
    <rect
      x="24"
      y="96"
      width="238"
      height="38"
      rx="14"
      fill="#111817"
      stroke="#40534c"
    />
    <rect
      x="278"
      y="96"
      width="118"
      height="38"
      rx="14"
      fill="#111817"
      stroke="#40534c"
    />
    <rect x="24" y="154" width="372" height="34" rx="12" fill="#23302d" />
    <rect x="24" y="200" width="372" height="34" rx="12" fill="#18342e" />
    <rect x="24" y="246" width="250" height="30" rx="12" fill="#23302d" />
  </g>
</svg>
